<svg width="51" height="41" viewBox="0 0 51 41" fill="none" xmlns="http://www.w3.org/2000/svg"> 
 <path d="M49.5312 21.7869C49.9219 22.3337 50.0781 23.0369 49.9219 23.74L48.2031 32.1775C47.8906 33.9744 46.3281 35.1462 44.6094 35.1462C43.3594 35.1462 42.1875 34.5994 41.4062 33.5056L38.125 28.6619C37.5781 27.8806 37.3438 26.9431 37.3438 25.9275V22.6462L34.9219 20.1462V33.8962C34.9219 34.5994 34.2969 35.1462 33.6719 35.1462H28.6719C28.0469 35.1462 27.4219 34.5994 27.4219 33.8962L27.5 25.1462C26.7188 25.9275 25.8594 26.4744 24.8438 26.865V28.8962C24.8438 29.5994 24.2969 30.1462 23.5938 30.1462C22.8906 30.1462 22.3438 29.5994 22.3438 28.8962V27.5681C20.8594 27.7244 20.5469 27.6462 19.8438 27.5681V28.8962C19.8438 29.5994 19.2969 30.1462 18.6719 30.1462C17.9688 30.1462 17.4219 29.5994 17.4219 28.8962V26.865C16.4844 26.4744 15.625 25.9275 14.9219 25.1462V33.8962C14.9219 34.5994 14.2969 35.1462 13.6719 35.1462H8.75C8.04688 35.1462 7.5 34.5994 7.5 33.8962V10.1462C7.5 9.83374 7.5 9.52124 7.57812 9.13062C6.40625 9.59937 5.625 10.7712 5.625 12.0212V20.1462C5.625 22.9587 3.35938 25.1462 0.625 25.1462H0V22.6462C0 21.0837 0.703125 19.7556 1.875 18.8181V12.0212C1.875 8.27124 4.92188 5.14624 8.75 5.14624H33.6719C36.0156 5.14624 38.2812 6.31812 39.6875 8.27124L44.8438 15.3806C45.3906 14.6775 46.0938 13.9744 46.875 13.5837C47.7344 13.1931 48.75 13.74 48.75 14.6775V20.6931L49.5312 21.7869ZM29.4531 13.2712C30.7031 12.0212 29.6094 10.1462 27.7344 10.1462H14.6875C12.8125 10.1462 11.7969 12.0212 12.9688 13.2712L14.7656 15.0681C16.4844 16.7087 18.8281 17.6462 21.25 17.6462C23.5938 17.6462 25.9375 16.7087 27.6562 15.0681L29.4531 13.2712ZM45 27.6462C45.625 27.6462 46.25 27.0994 46.25 26.3962C46.25 25.7712 45.625 25.1462 45 25.1462C44.2969 25.1462 43.75 25.7712 43.75 26.3962C43.75 27.0994 44.2969 27.6462 45 27.6462Z" fill="#1351B4"/> 
 </svg>